# xmcd CD database file
#
# Track frame offsets:
#	150
#	5303
#	10326
#	14227
#	18183
#	32105
#	40259
#	46256
#	52282
#	58757
#	65287
#	79063
#	84092
#	88205
#	94144
#	96136
#	98978
#	101800
#	105997
#	109709
#	112517
#	117877
#	123530
#	135776
#	140384
#	144881
#	151871
#	153449
#	160519
#	164253
#	180042
#	181623
#	185120
#	189313
#	193542
#	198392
#
# Disc length: 2826 seconds
#
# Revision: 2
# Processed by: cddbd v1.5.1PL0 Copyright (c) Steve Scherf et al.
# Submitted via: CDex 1.51
#
DISCID=bf0b0824
DTITLE=不明 - 不明
DYEAR=1900
DGENRE=
TTITLE0=第 1 音軌
TTITLE1=第 2 音軌
TTITLE2=第 3 音軌
TTITLE3=第 4 音軌
TTITLE4=第 5 音軌
TTITLE5=第 6 音軌
TTITLE6=第 7 音軌
TTITLE7=第 8 音軌
TTITLE8=第 9 音軌
TTITLE9=第 10 音軌
TTITLE10=第 11 音軌
TTITLE11=第 12 音軌
TTITLE12=第 13 音軌
TTITLE13=第 14 音軌
TTITLE14=第 15 音軌
TTITLE15=第 16 音軌
TTITLE16=第 17 音軌
TTITLE17=第 18 音軌
TTITLE18=第 19 音軌
TTITLE19=第 20 音軌
TTITLE20=第 21 音軌
TTITLE21=第 22 音軌
TTITLE22=第 23 音軌
TTITLE23=第 24 音軌
TTITLE24=第 25 音軌
TTITLE25=第 26 音軌
TTITLE26=第 27 音軌
TTITLE27=第 28 音軌
TTITLE28=第 29 音軌
TTITLE29=第 30 音軌
TTITLE30=第 31 音軌
TTITLE31=第 32 音軌
TTITLE32=第 33 音軌
TTITLE33=第 34 音軌
TTITLE34=第 35 音軌
TTITLE35=第 36 音軌
EXTD=
EXTT0=
EXTT1=
EXTT2=
EXTT3=
EXTT4=
EXTT5=
EXTT6=
EXTT7=
EXTT8=
EXTT9=
EXTT10=
EXTT11=
EXTT12=
EXTT13=
EXTT14=
EXTT15=
EXTT16=
EXTT17=
EXTT18=
EXTT19=
EXTT20=
EXTT21=
EXTT22=
EXTT23=
EXTT24=
EXTT25=
EXTT26=
EXTT27=
EXTT28=
EXTT29=
EXTT30=
EXTT31=
EXTT32=
EXTT33=
EXTT34=
EXTT35=
PLAYORDER=
